<?xml version="1.0" standalone="no"?>
<!DOCTYPE svg PUBLIC "-//W3C//DTD SVG 20010904//EN"
 "http://www.w3.org/TR/2001/REC-SVG-20010904/DTD/svg10.dtd">
<svg version="1.0" xmlns="http://www.w3.org/2000/svg"
 width="800.000000pt" height="800.000000pt" viewBox="0 0 800.000000 800.000000"
 preserveAspectRatio="xMidYMid meet">
<metadata>
Created by potrace 1.11, written by Peter Selinger 2001-2013
</metadata>
<g transform="translate(0.000000,800.000000) scale(0.100000,-0.100000)"
fill="#000000" stroke="none">
<path d="M7455 7231 c-39 -12 -70 -37 -156 -121 -59 -58 -151 -154 -204 -215
-158 -178 -208 -224 -241 -220 -135 15 -186 15 -259 2 -186 -34 -181 -36 -557
324 -97 94 -105 101 -150 122 -47 22 -62 22 -93 -5 -32 -28 -52 -109 -48 -192
2 -33 19 -111 38 -175 34 -112 54 -188 110 -434 16 -70 41 -146 62 -188 l35
-71 2 -157 c1 -201 -7 -222 -137 -342 -49 -46 -147 -140 -216 -209 -91 -91
-148 -138 -206 -172 -149 -87 -348 -169 -459 -189 -177 -31 -876 -313 -894
-361 -2 -4 -8 -8 -13 -8 -5 0 -33 -17 -61 -37 -235 -166 -460 -398 -631 -649
l-62 -91 -215 84 c-435 170 -625 245 -645 253 -11 5 -101 40 -200 79 -510 199
-883 345 -1322 517 -188 74 -343 134 -345 134 -2 0 -4 -121 -4 -269 l1 -268
100 -37 c144 -54 201 -75 690 -261 242 -91 501 -189 575 -216 74 -28 144 -55
155 -60 11 -5 187 -71 390 -148 454 -171 588 -221 597 -227 4 -3 -4 -33 -16
-67 -13 -34 -34 -98 -46 -142 -12 -44 -24 -81 -25 -83 -3 -3 -127 -51 -565
-217 -229 -87 -727 -276 -820 -311 -36 -14 -90 -34 -120 -45 -30 -11 -69 -26
-87 -34 -17 -8 -34 -15 -37 -15 -3 0 -113 -41 -243 -90 -130 -50 -237 -89
-239 -87 -7 7 83 175 116 218 52 66 172 169 198 169 4 0 20 7 35 15 33 17 120
32 223 39 92 6 151 24 174 53 26 33 14 59 -43 103 -119 91 -303 93 -491 7
-329 -153 -559 -466 -620 -846 -18 -108 -14 -341 7 -432 62 -270 242 -485 522
-624 201 -100 449 -165 730 -190 33 -3 74 -7 90 -10 112 -15 652 -22 815 -11
170 12 218 17 270 26 30 5 73 12 95 15 59 8 193 41 250 61 36 12 75 16 135 14
192 -6 229 -5 380 15 19 2 58 7 85 10 28 4 61 8 75 10 104 15 130 16 135 3 5
-12 267 -14 1705 -14 1503 1 1701 3 1704 16 3 8 4 76 4 151 l0 135 -397 0
c-218 -1 -406 1 -418 3 -16 2 -23 10 -23 26 0 32 -31 67 -106 119 -36 25 -67
46 -68 46 -2 0 -33 17 -67 39 -35 21 -73 41 -85 45 -26 8 -48 57 -69 156 -27
121 -27 125 -29 619 -1 443 0 476 17 498 10 12 72 114 139 225 151 254 161
268 248 359 84 87 134 151 217 274 117 176 212 363 228 455 23 125 25 192 11
378 -4 48 -7 146 -7 217 -1 118 2 135 25 185 34 74 90 293 120 470 25 145 57
265 116 435 18 50 43 139 56 199 18 84 31 118 58 155 31 43 37 62 52 166 3 22
25 121 49 220 24 99 47 196 51 215 4 19 9 42 11 50 2 8 6 69 10 135 7 138 -9
214 -52 257 -33 34 -62 38 -120 19z m-4465 -4648 c0 -16 4 -66 8 -113 15 -181
7 -635 -13 -741 -3 -13 -12 -73 -20 -132 -8 -59 -22 -121 -29 -136 -43 -82
-258 -207 -392 -228 -71 -10 -852 -1 -924 11 -14 2 -50 7 -80 11 -73 8 -223
43 -285 67 -203 77 -339 202 -395 362 -22 60 -25 96 -11 96 6 0 94 33 198 74
103 41 375 147 603 236 228 89 505 197 615 240 110 44 283 111 385 151 102 39
217 85 255 100 39 15 73 28 78 28 4 1 7 -11 7 -26z m2550 -158 c26 -100 52
-223 66 -315 3 -19 7 -46 10 -60 2 -14 6 -45 10 -70 20 -158 128 -497 210
-662 13 -26 20 -49 16 -50 -4 -2 -146 -3 -316 -3 -261 1 -310 3 -314 16 -3 8
-25 34 -51 59 l-46 45 33 35 c47 49 145 198 181 272 100 211 145 450 145 781
0 117 1 125 13 95 8 -18 27 -82 43 -143z"/>
</g>
</svg>
