<?xml version="1.0" standalone="no"?>
<!DOCTYPE svg PUBLIC "-//W3C//DTD SVG 20010904//EN"
 "http://www.w3.org/TR/2001/REC-SVG-20010904/DTD/svg10.dtd">
<svg version="1.0" xmlns="http://www.w3.org/2000/svg"
 width="1488.000000pt" height="1488.000000pt" viewBox="0 0 1488.000000 1488.000000"
 preserveAspectRatio="xMidYMid meet">
<metadata>
Created by potrace 1.11, written by Peter Selinger 2001-2013
</metadata>
<g transform="translate(0.000000,1488.000000) scale(0.100000,-0.100000)"
fill="#000000" stroke="none">
<path d="M3500 11872 l0 -1359 83 -43 c45 -24 123 -64 172 -90 50 -26 144 -76
210 -110 66 -34 165 -86 220 -115 55 -29 163 -85 240 -125 77 -40 187 -97 245
-128 458 -239 534 -279 850 -444 58 -31 173 -90 255 -133 83 -43 173 -90 201
-106 28 -16 55 -29 60 -29 5 0 9 583 9 1356 l0 1355 -60 33 c-56 30 -436 229
-695 364 -63 33 -158 82 -210 109 -52 28 -156 82 -230 120 -74 39 -175 92
-225 118 -49 26 -151 79 -225 118 -139 71 -186 96 -400 208 -69 37 -201 106
-295 154 -93 48 -174 92 -179 96 -6 5 -14 9 -18 9 -4 0 -8 -611 -8 -1358z"/>
<path d="M3270 10233 c-47 -25 -182 -95 -300 -155 -118 -61 -287 -148 -375
-193 -313 -161 -513 -264 -770 -396 -143 -73 -350 -179 -460 -236 -110 -56
-277 -142 -372 -190 -95 -48 -169 -91 -165 -94 9 -9 52 -33 207 -114 72 -37
153 -80 180 -95 28 -15 109 -58 180 -95 72 -37 171 -89 220 -115 50 -26 140
-73 200 -105 61 -32 142 -75 180 -95 39 -21 124 -66 190 -100 66 -34 156 -82
200 -105 97 -51 344 -182 555 -292 52 -28 149 -79 215 -113 66 -35 135 -71
154 -81 l34 -18 166 86 c91 47 220 114 286 148 66 34 206 106 310 160 105 54
253 130 330 170 271 140 452 233 640 330 105 54 258 132 340 175 83 43 222
115 310 160 88 45 164 85 168 89 4 4 -66 45 -155 91 -90 46 -194 100 -233 120
-38 21 -160 83 -270 140 -110 56 -254 131 -320 165 -66 34 -205 106 -310 160
-104 54 -250 128 -322 166 -318 165 -408 212 -578 299 -99 51 -217 112 -263
136 -45 24 -83 44 -85 43 -1 -1 -40 -21 -87 -46z"/>
<path d="M6034 8721 c-5 -4 -76 -43 -159 -86 -82 -43 -190 -99 -240 -125 -157
-83 -286 -150 -425 -222 -128 -66 -215 -112 -425 -223 -49 -26 -146 -77 -215
-112 -69 -36 -165 -87 -215 -113 -49 -26 -157 -82 -240 -125 -82 -43 -181 -95
-220 -115 -38 -21 -137 -72 -220 -115 -82 -43 -154 -81 -158 -85 -7 -6 -11
-1510 -8 -2563 l1 -158 148 77 c81 42 179 93 217 114 39 21 131 69 205 108
358 186 468 243 675 352 50 26 144 76 210 110 142 74 300 156 445 233 143 74
316 165 490 255 80 41 147 77 149 78 5 5 4 2714 -1 2719 -2 3 -9 1 -14 -4z"/>
<path d="M670 7366 c0 -1071 3 -1356 13 -1363 6 -6 93 -52 192 -103 99 -51
212 -110 250 -130 39 -21 129 -68 200 -105 72 -37 175 -91 230 -120 55 -29
159 -83 230 -120 72 -37 171 -89 220 -115 50 -26 144 -76 210 -110 66 -34 165
-86 220 -115 55 -29 159 -83 230 -120 216 -113 335 -175 443 -232 86 -46 102
-52 103 -36 5 182 -1 2697 -7 2703 -5 4 -56 33 -114 63 -238 124 -773 404
-880 460 -134 69 -299 156 -455 237 -60 32 -164 86 -230 120 -66 34 -165 86
-220 115 -425 223 -622 325 -628 325 -4 0 -7 -609 -7 -1354z"/>
<path d="M6599 8696 c-1 0 -2 -608 -3 -1349 l-1 -1349 640 5 c670 4 703 6 862
52 286 83 500 310 630 668 13 38 26 76 28 85 2 9 9 33 15 52 50 163 71 519 44
740 -71 567 -358 970 -754 1056 -19 4 -42 9 -50 11 -8 2 -37 6 -65 9 -27 3
-54 9 -60 12 -8 5 -1281 13 -1286 8z m1171 -469 c170 -28 307 -128 388 -285
43 -82 87 -227 97 -317 3 -27 7 -63 10 -80 6 -39 7 -374 2 -400 -3 -11 -8 -42
-11 -70 -40 -300 -169 -496 -376 -573 -89 -32 -109 -34 -427 -37 l-303 -3 0
882 c0 486 2 885 5 887 5 6 580 2 615 -4z"/>
<path d="M9263 7753 c0 -520 4 -971 9 -1002 48 -309 193 -522 450 -661 199
-107 444 -148 751 -127 195 14 419 86 552 177 179 123 317 331 350 529 3 19 8
37 10 40 12 21 16 275 16 1035 0 474 0 882 -1 907 l0 46 -277 -1 -277 -1 -1
-950 c-2 -862 -4 -956 -19 -1010 -41 -145 -134 -237 -285 -282 -61 -18 -287
-24 -372 -10 -180 29 -308 156 -340 337 -8 46 -12 338 -13 990 l-1 925 -276 1
-276 1 0 -944z"/>
<path d="M11958 8682 c-2 -10 -3 -615 -3 -1347 l1 -1330 664 -1 c366 -1 699 2
740 7 95 12 235 51 325 91 265 120 421 353 429 641 4 155 -33 284 -115 404
-49 71 -161 177 -249 235 l-79 52 37 25 c236 158 335 322 327 543 -4 105 -8
129 -35 206 -80 227 -314 413 -584 463 -28 5 -62 12 -76 15 -14 4 -329 8 -702
9 -623 3 -676 2 -680 -13z m1272 -455 c180 -32 273 -132 273 -296 0 -167 -83
-259 -268 -298 -34 -7 -693 -12 -712 -5 -10 3 -13 73 -13 301 0 164 2 300 4
302 7 7 676 3 716 -4z m32 -1071 c216 -25 322 -145 319 -363 -1 -152 -74 -252
-222 -304 -62 -22 -76 -23 -456 -25 l-393 -2 0 348 c0 190 2 349 4 351 7 7
682 2 748 -5z"/>
<path d="M670 4321 l0 -1360 113 -57 c61 -31 117 -60 122 -64 6 -4 91 -49 190
-100 99 -51 216 -112 260 -135 44 -23 148 -77 230 -120 83 -43 182 -95 220
-115 39 -21 129 -68 200 -105 72 -37 180 -93 240 -125 61 -32 162 -85 225
-118 63 -32 158 -82 210 -109 52 -28 158 -83 235 -123 77 -40 173 -91 213
-112 41 -22 75 -38 78 -36 3 4 7 1899 5 2508 l-1 205 -72 38 c-40 20 -127 65
-193 100 -66 35 -187 99 -270 142 -82 43 -190 99 -240 125 -49 26 -157 82
-240 125 -82 42 -181 94 -220 115 -38 21 -137 72 -220 115 -82 43 -186 97
-230 120 -44 23 -143 75 -220 115 -138 72 -198 103 -487 254 l-148 77 0 -1360z"/>
</g>
</svg>
